<?xml version="1.0" encoding="utf-8"?>
<!-- Generator: Adobe Illustrator 28.1.0, SVG Export Plug-In . SVG Version: 6.00 Build 0)  -->
<svg version="1.1" id="Layer_1" xmlns="http://www.w3.org/2000/svg" xmlns:xlink="http://www.w3.org/1999/xlink" x="0px" y="0px"
	 viewBox="0 0 211 143" style="enable-background:new 0 0 211 143;" xml:space="preserve">
<style type="text/css">
	.st0{fill:#000000;}
</style>
<g>
	<g>
		<g>
			<g>
				<path class="st0" d="M93.6,32.5v6.3h-4.1v-18c1,0,2.1,0,3.2,0c1.2,0,2.1,0,2.9,0c4.4,0,6.6,1.9,6.6,5.7c0,2.5-1,4.2-3,5.2
					l5.2,7.1h-5l-4.4-6.3H93.6z M95.4,24.6c0,0-0.1,0-0.2,0c-0.1,0-0.4,0-0.6,0c-0.3,0-0.6,0-0.9,0v4h1.5c1.9,0,2.8-0.7,2.8-2.1
					C97.9,25.2,97.1,24.6,95.4,24.6z"/>
				<path class="st0" d="M118.6,20.8h4.1v10.5c0,2.6-0.7,4.5-2.1,5.8c-1.4,1.3-3.1,1.9-5.2,1.9c-2.4,0-4.3-0.7-5.7-2
					c-1.4-1.4-2.1-3.3-2.1-5.9V20.8h4.1v9.5c0,3.3,1.2,4.9,3.7,4.9c1.1,0,2-0.4,2.5-1.2c0.5-0.8,0.8-1.9,0.8-3.5V20.8z"/>
				<path class="st0" d="M134.6,33.8c0-0.8-0.9-1.5-2.6-2.4c-0.5-0.2-1-0.4-1.3-0.6c-0.4-0.2-0.8-0.5-1.3-0.8
					c-0.5-0.3-0.9-0.7-1.2-1.1c-0.3-0.4-0.6-0.8-0.8-1.4c-0.2-0.6-0.3-1.2-0.3-1.8c0-1.4,0.5-2.7,1.6-3.7c1.1-1,2.5-1.5,4.2-1.5
					c2.3,0,4.1,0.7,5.3,2l-2.2,3.1c-0.5-0.5-0.9-0.8-1.3-1c-0.4-0.2-0.8-0.3-1.4-0.3c-0.6,0-1,0.1-1.3,0.4c-0.3,0.2-0.5,0.6-0.5,1
					c0,0.5,0.2,0.9,0.6,1.2c0.4,0.4,0.8,0.7,1.4,0.9c0.6,0.2,1.2,0.5,1.8,0.9c0.7,0.3,1.3,0.7,1.8,1.1c0.6,0.4,1,0.9,1.4,1.6
					c0.4,0.7,0.6,1.5,0.6,2.4c0,1.5-0.6,2.8-1.8,3.8c-1.1,1-2.6,1.5-4.4,1.5c-1.3,0-2.5-0.3-3.7-0.8c-1.2-0.5-2-1.2-2.4-2.2l2.3-2.8
					c0.5,0.6,1,1.1,1.7,1.4c0.7,0.3,1.4,0.5,2.1,0.5c0.5,0,0.9-0.1,1.2-0.4C134.5,34.6,134.6,34.2,134.6,33.8z"/>
				<path class="st0" d="M149.9,33.8c0-0.8-0.9-1.5-2.6-2.4c-0.5-0.2-1-0.4-1.3-0.6c-0.4-0.2-0.8-0.5-1.3-0.8
					c-0.5-0.3-0.9-0.7-1.2-1.1c-0.3-0.4-0.6-0.8-0.8-1.4c-0.2-0.6-0.3-1.2-0.3-1.8c0-1.4,0.5-2.7,1.6-3.7c1.1-1,2.5-1.5,4.2-1.5
					c2.3,0,4.1,0.7,5.3,2l-2.2,3.1c-0.5-0.5-0.9-0.8-1.3-1c-0.4-0.2-0.8-0.3-1.4-0.3c-0.6,0-1,0.1-1.3,0.4c-0.3,0.2-0.5,0.6-0.5,1
					c0,0.5,0.2,0.9,0.6,1.2c0.4,0.4,0.8,0.7,1.4,0.9c0.6,0.2,1.2,0.5,1.8,0.9c0.7,0.3,1.3,0.7,1.8,1.1c0.6,0.4,1,0.9,1.4,1.6
					c0.4,0.7,0.6,1.5,0.6,2.4c0,1.5-0.6,2.8-1.8,3.8c-1.1,1-2.6,1.5-4.4,1.5c-1.3,0-2.5-0.3-3.7-0.8c-1.2-0.5-2-1.2-2.4-2.2l2.3-2.8
					c0.5,0.6,1,1.1,1.7,1.4c0.7,0.3,1.4,0.5,2.1,0.5c0.5,0,0.9-0.1,1.2-0.4C149.7,34.6,149.9,34.2,149.9,33.8z"/>
				<path class="st0" d="M162.9,38.7h-4.1v-18h4.1V38.7z"/>
				<path class="st0" d="M170.6,38.7h-4.1l7.5-18h3.7l7.5,18h-4.4l-1.5-3.8h-7.1L170.6,38.7z M177.6,31.1l-2-5.1l-2,5.1H177.6z"/>
				<path class="st0" d="M204,20.8v18h-3.3L192.2,28v10.8h-3.8v-18h3.3l8.5,10.8V20.8H204z"/>
			</g>
			<g>
				<path class="st0" d="M93.6,67.2h-4.1v-18h4.1l5.5,7.6l5.2-7.6h3.9v18h-4.1V55.7l-5,7h-0.6l-5-6.9V67.2z"/>
				<path class="st0" d="M114.7,67.2h-4.1l7.5-18h3.7l7.5,18h-4.4l-1.5-3.8h-7.1L114.7,67.2z M121.7,59.6l-2-5.1l-2,5.1H121.7z"/>
				<path class="st0" d="M138,62.3c0-0.8-0.9-1.5-2.6-2.4c-0.5-0.2-1-0.4-1.3-0.6c-0.4-0.2-0.8-0.5-1.3-0.8
					c-0.5-0.3-0.9-0.7-1.2-1.1c-0.3-0.4-0.6-0.8-0.8-1.4c-0.2-0.6-0.3-1.2-0.3-1.8c0-1.4,0.5-2.7,1.6-3.7c1.1-1,2.5-1.5,4.2-1.5
					c2.3,0,4.1,0.7,5.3,2l-2.2,3.1c-0.5-0.5-0.9-0.8-1.3-1c-0.4-0.2-0.8-0.3-1.4-0.3c-0.6,0-1,0.1-1.3,0.4c-0.3,0.2-0.5,0.6-0.5,1
					c0,0.5,0.2,0.9,0.6,1.2c0.4,0.4,0.8,0.7,1.4,0.9c0.6,0.2,1.2,0.5,1.8,0.9c0.6,0.3,1.3,0.7,1.8,1.1c0.6,0.4,1,0.9,1.4,1.6
					c0.4,0.7,0.6,1.5,0.6,2.4c0,1.5-0.6,2.8-1.8,3.8c-1.1,1-2.6,1.5-4.4,1.5c-1.3,0-2.5-0.3-3.7-0.8c-1.2-0.5-2-1.2-2.4-2.2l2.3-2.8
					c0.5,0.6,1,1.1,1.7,1.4c0.7,0.3,1.4,0.5,2.1,0.5c0.5,0,0.9-0.1,1.2-0.4C137.9,63,138,62.7,138,62.3z"/>
				<path class="st0" d="M149,53.1h-5.4v-3.8h14.9v3.8h-5.4v14.1H149V53.1z"/>
				<path class="st0" d="M171.9,67.2H161v-18h10.7v3.8h-6.5v3.2h5.8v3.8h-5.8v3.3h6.8V67.2z"/>
				<path class="st0" d="M179.8,60.9v6.3h-4.1v-18c1,0,2.1,0,3.2,0c1.2,0,2.1,0,2.9,0c4.4,0,6.6,1.9,6.6,5.7c0,2.5-1,4.2-3,5.2
					l5.2,7.1h-5l-4.4-6.3H179.8z M181.6,53c0,0-0.1,0-0.2,0c-0.1,0-0.4,0-0.6,0c-0.3,0-0.6,0-0.9,0v4h1.5c1.9,0,2.8-0.7,2.8-2.1
					C184.1,53.7,183.3,53,181.6,53z"/>
				<path class="st0" d="M199.5,62.3c0-0.8-0.9-1.5-2.6-2.4c-0.5-0.2-1-0.4-1.3-0.6s-0.8-0.5-1.3-0.8c-0.5-0.3-0.9-0.7-1.2-1.1
					c-0.3-0.4-0.6-0.8-0.8-1.4c-0.2-0.6-0.3-1.2-0.3-1.8c0-1.4,0.5-2.7,1.6-3.7c1.1-1,2.5-1.5,4.2-1.5c2.3,0,4.1,0.7,5.3,2l-2.2,3.1
					c-0.5-0.5-0.9-0.8-1.3-1c-0.4-0.2-0.8-0.3-1.4-0.3c-0.6,0-1,0.1-1.3,0.4c-0.3,0.2-0.5,0.6-0.5,1c0,0.5,0.2,0.9,0.6,1.2
					c0.4,0.4,0.8,0.7,1.4,0.9c0.6,0.2,1.2,0.5,1.8,0.9c0.6,0.3,1.3,0.7,1.8,1.1c0.6,0.4,1,0.9,1.4,1.6c0.4,0.7,0.6,1.5,0.6,2.4
					c0,1.5-0.6,2.8-1.8,3.8c-1.1,1-2.6,1.5-4.4,1.5c-1.3,0-2.5-0.3-3.7-0.8c-1.2-0.5-2-1.2-2.4-2.2l2.3-2.8c0.5,0.6,1,1.1,1.7,1.4
					c0.7,0.3,1.4,0.5,2.1,0.5c0.5,0,0.9-0.1,1.2-0.4C199.4,63,199.5,62.7,199.5,62.3z"/>
			</g>
			<g>
				<path class="st0" d="M89.5,95.6V77.7c2-0.1,3.8-0.2,5.4-0.2c2,0,3.5,0.4,4.5,1.2s1.5,1.9,1.5,3.3c0,1.8-0.7,3.1-2.1,4v0.1
					c0.8,0.3,1.4,0.8,1.9,1.5c0.5,0.7,0.7,1.6,0.7,2.6c0,1.8-0.6,3.2-1.9,4.1c-1.2,0.9-2.9,1.4-4.9,1.4
					C92.3,95.7,90.6,95.7,89.5,95.6z M94.9,81.4c-0.3,0-0.7,0-1.3,0.1v3.3H95c1.3,0,1.9-0.6,1.9-1.7c0-0.5-0.2-0.9-0.6-1.2
					C95.9,81.5,95.5,81.4,94.9,81.4z M95.2,88.4h-1.6v3.4c0.4,0.1,0.8,0.2,1.4,0.2c1.6,0,2.4-0.6,2.4-1.9
					C97.4,88.9,96.7,88.4,95.2,88.4z"/>
				<path class="st0" d="M107.7,95.6h-4.1l7.5-18h3.7l7.5,18h-4.4l-1.5-3.8h-7.1L107.7,95.6z M114.8,88l-2-5.1l-2,5.1H114.8z"/>
				<path class="st0" d="M136.5,95.6h-11.4v-18h4.1v14.1h7.3V95.6z"/>
				<path class="st0" d="M151.1,95.6h-11.4v-18h4.1v14.1h7.3V95.6z"/>
				<path class="st0" d="M165.1,95.6h-10.9v-18h10.7v3.8h-6.5v3.2h5.8v3.8h-5.8v3.3h6.8V95.6z"/>
				<path class="st0" d="M172.8,81.5h-5.4v-3.8h14.9v3.8h-5.4v14.1h-4.1V81.5z"/>
			</g>
			<g>
				<path class="st0" d="M89.2,115.1c0-2.6,0.9-4.8,2.6-6.6c1.7-1.8,3.9-2.7,6.6-2.7c2.6,0,4.8,0.9,6.5,2.6c1.7,1.7,2.6,3.9,2.6,6.6
					c0,2.6-0.9,4.8-2.6,6.6c-1.7,1.7-3.9,2.6-6.5,2.6s-4.8-0.9-6.6-2.6C90,120,89.2,117.8,89.2,115.1z M91.5,115.1
					c0,2,0.7,3.7,2,5.1c1.3,1.4,2.9,2.1,4.9,2.1c2,0,3.7-0.7,4.9-2.1c1.3-1.4,1.9-3.1,1.9-5.1s-0.7-3.8-2-5.1
					c-1.3-1.4-2.9-2.1-4.9-2.1c-2,0-3.6,0.7-4.9,2C92.1,111.3,91.5,113,91.5,115.1z"/>
				<path class="st0" d="M113.9,124.1h-2.2v-18h10.1v2.1h-8v6.4h7.2v2.1h-7.2V124.1z"/>
				<path class="st0" d="M127.9,124.1h-2.2v-18h10.1v2.1h-8v6.4h7.2v2.1h-7.2V124.1z"/>
				<path class="st0" d="M142.5,124.1h-2.2v-18h2.2V124.1z"/>
				<path class="st0" d="M161.1,120.7l0.9,1.6c-0.6,0.6-1.4,1.1-2.4,1.5c-1,0.4-2.1,0.5-3.2,0.5c-2.7,0-4.9-0.8-6.6-2.5
					c-1.7-1.7-2.5-4-2.5-6.7c0-2.7,0.8-4.9,2.4-6.6c1.6-1.8,3.8-2.6,6.5-2.6c2.3,0,4.1,0.6,5.5,1.7l-1,1.6c-1.2-0.9-2.7-1.3-4.4-1.3
					c-2,0-3.5,0.7-4.8,2c-1.2,1.3-1.9,3-1.9,5.2c0,2.1,0.6,3.9,1.9,5.2c1.3,1.3,3,2,5.1,2C158.3,122.3,159.8,121.7,161.1,120.7z"/>
				<path class="st0" d="M168.4,124.1h-2.2v-18h2.2V124.1z"/>
				<path class="st0" d="M174.4,124.1h-2.2l7.7-18.1h1.9l7.7,18.1h-2.3l-2.3-5.4h-8.2L174.4,124.1z M184,116.6l-3.2-7.7l-3.2,7.7
					H184z"/>
				<path class="st0" d="M203.8,124.1h-11v-18h2.2V122h8.9V124.1z"/>
			</g>
			<g>
				<rect x="75.8" y="21" class="st0" width="1.2" height="103.1"/>
			</g>
			<path class="st0" d="M63.3,76c-0.7-0.6-1.3-1.2-2-1.7c-0.1-0.1-0.1-0.1-0.2-0.2c0.2-0.1,0.5-0.2,0.8-0.4
				c-1.5-0.5-2.8-0.9-4.1-1.3c-2.4-0.8-4.8-1.3-7.3-1.4c-1,0-1.2-0.5-1.1-1.4c0.3-1.6,0.6-3.2,0.8-4.8c0.2-1.8,0.3-3.6,0.6-5.4
				c0.4-2.3-0.1-4.2-1.9-5.7c-0.4-0.3-0.7-0.8-0.7-1.3c-0.1-1.3-0.2-2.6,0.1-3.8c0.5-2.2,1.4-4.3,2.1-6.4c0.3-0.9,0.2-2,0.7-2.8
				c1.4-2.5,1.9-5.3,2.5-8c0.5-2.2,1.1-4.5,1.7-6.7c1.4,0.5,1.4,1.9,2.2,2.8c0.2-0.5,0.3-0.9,0.3-1.4c0-0.7-0.1-1.4-0.1-2.1
				c0,0,0,0,0-0.1c0,0,0.1-0.1,0.1-0.1c1-0.7,2.1-0.8,3.2-0.2c-0.3-0.3-0.5-0.6-0.8-0.8c0.8-0.5,1.6-0.9,2.4-1.4
				c-0.1-0.1-0.1-0.2-0.2-0.3c-1.7,0.4-3.4,0.7-5.2,1.1V22c0,0,0,0,0,0c-1.6,0-2.7,0.3-3.2,0.5c0,0,0,0,0,0c0,0-0.2,0.1-0.3,0.3
				c0,0-0.7,1.9-1.6,4.5l0,0c0,0.1-0.1,0.2-0.1,0.4c-0.9,2.5-1.9,5.2-2.4,6.3c-0.9,1.8-1.1,3.5-1.3,4.4c0,0.2-0.1,0.4-0.1,0.5
				c-0.1,0.2-1.9,3.9-2.4,5.8c-0.1,0.2-2.3,3.3-2.8,4.6c0-0.3,0-0.7-0.2-1c-0.5-1.3-0.9-2.6-1.2-4c-0.2-0.6-0.1-1.2-0.2-1.9
				c0-0.6,0.2-1.2,0-1.8c-0.1-0.3-0.2-0.5-0.4-0.8c0,0,0,0,0,0c0,0,0,0,0,0c-0.5-1-1.2-1.9-1.5-2.9c-0.1-0.2-0.4-0.3-0.6-0.5
				c-0.1,0.3-0.1,0.5-0.2,0.9c-0.1-0.7-0.2-1.2-0.2-1.7c-0.1,0-0.1,0-0.2,0c0,0.6-0.1,1.2-0.1,1.7c-0.1,0-0.2,0.1-0.4,0.1
				c-0.1-0.4-0.3-0.8-0.4-1.2c-0.1-0.4-0.3-0.8-0.4-1.2c-0.1,0-0.2,0-0.2,0.1c0.1,0.7,0.3,1.4,0.4,2.1c-0.8,0.4-0.8-0.2-0.9-0.7
				c-0.1-0.5-0.3-0.9-0.4-1.4c-0.1,0-0.1,0-0.2,0.1c0,0.4,0.1,0.8,0.1,1.1c-1.4,0.7-1.8-0.9-3.1-1.3c0.5,1.2,0.9,2.1,1.4,3.1
				c0,0,0,0,0,0c-0.2,0.7-0.5,0.2-0.8,0c-0.3-0.2-0.7-0.5-1-0.7c-0.1,0.1-0.2,0.3-0.4,0.4c0.5,0.4,1,0.7,1.5,1.1
				c-0.1,0.1-0.1,0.2-0.2,0.3c-0.3-0.2-0.7-0.4-1-0.6c0.4,1,0.8,2.1,1.3,3.2c0.7,1.4,1.4,2.8,2.3,4.1c0.3,0.4,0.8,0.7,1.3,0.8
				c0.6,0.1,0.9,0.4,1.1,0.9c0.6,1.5,0,2.9-0.5,3.9c-1.6,0.4-3,0.5-4.2,1.2c-1.2,0.7-2.4,1.5-3.8,1.7c0,0,0,0,0,0
				c-0.5,0.3-4.1,2.1-6.1,2.5c0,0,0,0,0,0c-1.1,0.1-2.2,0.3-3.1,0.9c0,0-0.1,0-0.1,0c-0.6,0.3-1.3,0.6-1.9,0.9
				c-0.1,0.1-0.3,0.1-0.4,0.2c-1.5,0.6-2.9,1.5-4.6,1.3c-0.6,0-1.1,0.4-1.7,0.6l-0.1,0c0,0-1.3,2.9-4.7,6.5l0.2,0.1
				c0.2-0.2,0.4-0.5,0.6-0.7c0,0.1-0.1,0.1-0.1,0.2c0.1,0.1,0.2,0.1,0.2,0.2c0.5-0.5,1-1.1,1.7-1.8c-0.1,0.6-0.1,0.9-0.1,1.3
				c0,0.3,0,0.6,0,0.8c0.5-1.1,0.1-2.5,1.3-3.4c0,0.8-0.1,1.4-0.1,2.1c0.1,0,0.2,0,0.3,0c0.5-1.1,1.1-2.3,1.5-3.5
				c0.3-0.9,0.9-1.2,1.7-1.4c2.4-0.6,4.8-0.6,7.3-0.7c0.8,0,1.7,0,2.4-0.4c3.1-2,6.7-2.6,10.2-3.4c0.4-0.1,1,0,1.3,0.3
				c2.7,2.5,4.8,5.3,6.2,8.7c0.8,1.8-0.2,3.3-2.1,3.2c-0.4,0-0.9-0.2-1.3-0.2c-3.6,0.1-6.9-1-10.1-2.3c-0.4-0.2-0.9-0.1-1.4-0.2
				c0,0,0,0.1,0,0.1c-0.7,0.2-2.5,0.6-2.8,1.2c0,0,0,0,0,0c-1.2,0.8-0.3,2-0.4,3.1c0.5-0.1,0.9-0.2,1.2-0.2c0,0.1,0,0.1,0.1,0.2
				c-0.3,0.1-0.5,0.2-0.7,0.2c0,0.3,0.1,0.6,0,0.8c-0.5,1.1,0.5,1.8,1.9,2c0.6,1.9,1.6,2.6,3.6,2.7c0.3,0,0.5,0.1,0.7,0.2
				c0.7,0.4,1.5,0.8,2,1.4c0.8,0.9,1.1,0.3,1.6-0.2c0.1-0.1,0.4-0.2,0.7-0.2c0,0.1,0.1,0.2,0.1,0.2c-0.2,0.1-0.4,0.2-0.5,0.2
				c0.6,1.4,1.6,2,2.8,1.8c1,3.7,1.9,7.3,2.8,10.9c0.1,0.4,0.1,0.8,0,1.2c-0.3,1.4-0.7,2.7-1,4.1c-0.2,1-0.5,2-0.5,3.1
				c0,3.3,0.1,6.6,0.2,9.9c0,0.2,0,0.4,0,0.6l-0.2,0l0.1,0.4c-0.1,0.6-0.5,1.1-1.3,1.3c-0.1,0-0.1,0.1-0.2,0.1l-0.1-0.1
				c0,0-0.7,0.7-0.7,1.6c0,0,0,0,0,0c0,0,0,0,0.1,0.1c0,0.1,0,0.1,0,0.2l0.1,0c0.4,0.6,0.8,1.2,1.2,1.7c0,0,0,0,0,0.1
				c0,0,0,0.1,0.1,0.1c0.7,2.2-0.2,4.2-0.4,6.3c0.1,0.1,0.2,0.1,0.3,0.1c0.3,0,0.5,0.1,0.8,0.1c2.3-4.3,1.8-9,2.1-13.6
				c0.4-3.4,1.1-5.5,1.3-6c0.7,1.9,1.5,3.8,2.3,5.7c1,2.4,1.8,4.8,1.4,7.6c-0.4,2.3-0.3,4.7-0.5,7.1c0,0.6,0.1,1.3,0.8,1.3
				c0.7,0.1,1.5,0,1.8-0.8c0.2-0.8,0.4-1.7,0.5-2.5c0.1-0.7,0-1.4-0.1-2.1c0-1.7,0.2-3.4-0.2-5.1c-0.6-2.5-0.7-5-0.8-7.6
				c0-1.6-0.2-3.2-0.4-4.8c-0.3-2-0.9-3.9-0.8-6c0-0.9-0.3-1.8-0.5-2.7c-0.6-3.6-0.8-7.1,1.4-10.4c0.5-0.8,2.1-1.1,2.9-0.5
				c0.5,0.4,1.1,0.6,1.7,0.1c0.2-0.2,0.6-0.1,0.9-0.1c0.7,0.1,1.5,0.5,2.2,0.4c0.2,0,0.5-0.1,0.7-0.2c0-0.2,0.2-0.3,0.4-0.2
				c0.2,0.1,0.4-0.2,0.5-0.4c0,0,0-0.1,0.1-0.1c0,0,0-0.1,0-0.1c0.1-0.2,0.4-0.1,0.5,0c0.8-0.2,1.7,0,2.3-0.8c0,0,0.1-0.1,0.1-0.1
				c0.1-0.1,0.1-0.1,0.2-0.1c0,0,0-0.1-0.1-0.1l1.2-0.2c0.1-0.1,0.2-0.3,0.2-0.5c-0.1-0.1,0-0.2,0-0.4c0,0,0,0,0,0
				c0-0.1,0-0.2,0-0.3c0-0.1,0.1-0.2,0.2-0.3c0.1,0,0.3-0.1,0.4-0.1c0.2,0,0.3,0.1,0.3,0.2c0,0.1,0,0.1,0,0.2c0,0,0.1,0,0.1,0
				c0.1-0.3,0.2-0.6,0.4-0.9c0.1-0.2,0.3-0.2,0.4-0.1c0.1,0.1,0.2,0.1,0.2,0.2c0.2-0.2,0.5-0.4,0.7-0.6C64.1,76.7,63.8,76.4,63.3,76
				z"/>
		</g>
	</g>
</g>
</svg>
